<svg width="115" height="20" viewBox="0 0 115 20" fill="none" xmlns="http://www.w3.org/2000/svg">
<path d="M21.8173 7.48342C21.7339 7.22789 21.5807 7.00077 21.375 6.8277C21.1693 6.65464 20.9194 6.54253 20.6534 6.50404L15.1512 5.70454L12.6926 0.736691C12.2057 -0.245564 10.5968 -0.245564 10.11 0.736691L7.65135 5.70454L2.16222 6.50404C1.89636 6.5431 1.64668 6.65562 1.44131 6.82893C1.23595 7.00224 1.08306 7.22945 0.999868 7.48497C0.916677 7.74028 0.906722 8.01381 0.971132 8.27449C1.03554 8.53518 1.17174 8.7726 1.36426 8.95979L5.34543 12.8402L4.40627 18.315C4.36107 18.5801 4.39078 18.8525 4.49205 19.1016C4.59333 19.3508 4.76214 19.5667 4.97949 19.725C5.19745 19.8825 5.455 19.976 5.72318 19.9951C5.99137 20.0141 6.25956 19.9581 6.49762 19.8331L11.4007 17.2476L16.3182 19.8331C16.5285 19.944 16.759 19.9988 16.988 19.9988C17.2923 19.998 17.5888 19.9024 17.8363 19.7253C18.0536 19.5668 18.2223 19.3509 18.3236 19.1018C18.4249 18.8527 18.4546 18.5803 18.4095 18.3152L17.4719 12.8404L21.4531 8.96001C21.6458 8.77254 21.782 8.53481 21.8464 8.27381C21.9108 8.0128 21.9007 7.73898 21.8173 7.48342ZM44.863 7.48342C44.7796 7.22789 44.6264 7.00077 44.4208 6.8277C44.2151 6.65464 43.9651 6.54253 43.6991 6.50404L38.1969 5.70454L35.7383 0.736691C35.2515 -0.245564 33.6425 -0.245564 33.1557 0.736691L30.6971 5.70454L25.208 6.50404C24.9421 6.5431 24.6924 6.65562 24.4871 6.82893C24.2817 7.00224 24.1288 7.22945 24.0456 7.48497C23.9624 7.74028 23.9525 8.01381 24.0169 8.27449C24.0813 8.53518 24.2175 8.7726 24.41 8.95979L28.3912 12.8402L27.452 18.315C27.4067 18.5801 27.4363 18.8526 27.5376 19.1017C27.6389 19.3509 27.8078 19.5668 28.0252 19.725C28.2432 19.8825 28.5007 19.976 28.7689 19.9951C29.0371 20.0142 29.3053 19.9581 29.5434 19.8331L34.4465 17.2476L39.3639 19.8331C39.5743 19.944 39.8048 19.9988 40.0337 19.9988C40.3381 19.998 40.6346 19.9024 40.8821 19.7253C41.0993 19.5668 41.2681 19.3509 41.3693 19.1018C41.4706 18.8527 41.5004 18.5803 41.4553 18.3152L40.5177 12.8404L44.4988 8.96001C44.6915 8.77254 44.8278 8.53481 44.8921 8.27381C44.9565 8.0128 44.9464 7.73898 44.863 7.48342ZM67.9088 7.48342C67.8254 7.22789 67.6722 7.00077 67.4665 6.8277C67.2608 6.65464 67.0109 6.54253 66.7449 6.50404L61.2427 5.70454L58.7841 0.736691C58.2972 -0.245564 56.6883 -0.245564 56.2015 0.736691L53.7428 5.70454L48.2537 6.50404C47.9878 6.5431 47.7382 6.65562 47.5328 6.82893C47.3274 7.00224 47.1746 7.22945 47.0914 7.48497C47.0082 7.74028 46.9982 8.01381 47.0626 8.27449C47.127 8.53518 47.2632 8.7726 47.4558 8.95979L51.4369 12.8402L50.4978 18.315C50.4526 18.5801 50.4823 18.8525 50.5835 19.1016C50.6848 19.3508 50.8536 19.5667 51.071 19.725C51.2889 19.8825 51.5465 19.976 51.8147 19.9951C52.0829 20.0141 52.3511 19.9581 52.5891 19.8331L57.492 17.2476L62.4094 19.8331C62.6198 19.944 62.8503 19.9988 63.0792 19.9988C63.3836 19.998 63.6801 19.9024 63.9276 19.7253C64.1449 19.5668 64.3136 19.3509 64.4149 19.1018C64.5161 18.8527 64.5459 18.5803 64.5008 18.3152L63.5632 12.8404L67.5443 8.96001C67.7371 8.77258 67.8734 8.53487 67.9378 8.27385C68.0022 8.01284 67.9922 7.73899 67.9088 7.48342ZM90.9545 7.48342C90.8711 7.22789 90.7179 7.00077 90.5123 6.8277C90.3066 6.65464 90.0566 6.54253 89.7906 6.50404L84.2884 5.70454L81.8298 0.736691C81.343 -0.245564 79.734 -0.245564 79.2472 0.736691L76.7886 5.70454L71.2995 6.50404C71.0336 6.5431 70.7839 6.65562 70.5786 6.82893C70.3732 7.00224 70.2203 7.22945 70.1371 7.48497C70.0539 7.74028 70.044 8.01381 70.1084 8.27449C70.1728 8.53518 70.309 8.7726 70.5015 8.95979L74.4827 12.8402L73.5435 18.315C73.4983 18.5801 73.528 18.8525 73.6293 19.1016C73.7306 19.3508 73.8994 19.5667 74.1167 19.725C74.3347 19.8825 74.5922 19.976 74.8604 19.9951C75.1286 20.0141 75.3968 19.9581 75.6349 19.8331L80.5377 17.2476L85.4552 19.8331C85.6656 19.944 85.896 19.9988 86.125 19.9988C86.4293 19.998 86.7259 19.9024 86.9733 19.7253C87.1906 19.5668 87.3594 19.3509 87.4606 19.1018C87.5619 18.8527 87.5916 18.5803 87.5466 18.3152L86.6089 12.8404L90.5901 8.96001C90.7828 8.77255 90.9191 8.53484 90.9835 8.27384C91.0479 8.01283 91.0379 7.739 90.9545 7.48342ZM114 7.48342C113.917 7.22801 113.763 7.001 113.558 6.82797C113.352 6.65494 113.102 6.54275 112.836 6.50404L107.334 5.70454L104.876 0.736691C104.389 -0.245564 102.78 -0.245564 102.293 0.736691L99.8343 5.70454L94.3452 6.50404C94.0793 6.5431 93.8297 6.65562 93.6243 6.82893C93.4189 7.00224 93.266 7.22945 93.1829 7.48497C93.0997 7.74028 93.0897 8.01381 93.1541 8.27449C93.2185 8.53518 93.3547 8.7726 93.5473 8.95979L97.5284 12.8402L96.5893 18.315C96.5441 18.5801 96.5738 18.8525 96.675 19.1016C96.7763 19.3508 96.9451 19.5667 97.1625 19.725C97.4084 19.903 97.7043 19.9988 98.0079 19.9986C98.2427 19.9985 98.4739 19.9416 98.6819 19.8329L103.585 17.2474L108.504 19.8329C108.741 19.959 109.01 20.0156 109.278 19.9963C109.546 19.9769 109.804 19.8824 110.021 19.7235C110.238 19.5651 110.406 19.3494 110.507 19.1005C110.608 18.8516 110.638 18.5795 110.593 18.3147L109.655 12.84L113.636 8.95957C113.828 8.772 113.965 8.53434 114.029 8.27348C114.093 8.01261 114.083 7.73894 114 7.48342Z" fill="#884FDB"/>
</svg>
