<svg width="184" height="185" viewBox="0 0 184 185" fill="none" xmlns="http://www.w3.org/2000/svg">
<path d="M92 184.5C41.1898 184.5 9.01636e-06 143.31 1.12373e-05 92.5C1.34583e-05 41.6898 41.1898 0.499994 92 0.499996C142.81 0.499998 184 41.6898 184 92.5C184 143.31 142.81 184.5 92 184.5Z" fill="#111013"/>
<path d="M88.4989 157.881C86.3547 157.732 85.0224 159.215 84.7993 161.383L84.6055 157.726L83.5694 157.654L83.2221 162.647L87.6255 162.953L87.7206 161.586L84.9433 161.393C85.3817 160.079 86.1623 159.251 87.7884 159.364C89.6879 159.496 90.5272 160.943 90.385 162.986C90.2459 164.987 89.2269 166.333 87.2122 166.193C85.6581 166.084 84.8032 165.071 84.6014 163.813L83.1211 164.722C83.662 166.51 85.0905 167.592 87.1195 167.733C90.1127 167.942 91.9147 165.941 92.1119 163.106C92.3251 160.041 90.974 158.053 88.4989 157.881Z" fill="white"/>
<path d="M73.2377 155.427L72.8869 156.827L77.938 158.093L77.2645 160.779L73.0809 159.731L72.7301 161.13L76.9137 162.179L76.2892 164.669L71.2381 163.403L70.8873 164.802L77.5195 166.465L79.8699 157.09L73.2377 155.427Z" fill="white"/>
<path d="M66.2843 152.857L63.0813 160.429L60.3445 159.272L59.7825 160.6L66.7441 163.545L67.3061 162.216L64.5825 161.064L67.7855 153.492L66.2843 152.857Z" fill="white"/>
<path d="M54.1769 146.095L48.5776 153.973L49.9062 154.917L55.5055 147.039L54.1769 146.095Z" fill="white"/>
<path d="M49.7126 142.719L46.1165 146.643L45.0126 148.018L45.2897 146.414L46.1925 139.493L45.0864 138.479L38.5568 145.605L39.7585 146.706L43.345 142.792L44.5082 141.373L44.1868 143.133L43.2681 149.922L44.3848 150.945L50.9144 143.82L49.7126 142.719Z" fill="white"/>
<path d="M36.6584 127.737L29.7375 132.176L28.1332 129.675L26.919 130.454L31 136.816L32.2142 136.038L30.6176 133.548L37.5385 129.109L36.6584 127.737Z" fill="white"/>
<path d="M31.9758 118.688C30.855 116.092 28.089 115.181 25.5198 116.29C22.9639 117.394 21.7304 120.032 22.8512 122.628C23.9777 125.237 26.738 126.134 29.2939 125.031C31.8631 123.921 33.1023 121.297 31.9758 118.688ZM30.5398 119.292C31.3404 121.146 30.4543 122.66 28.6135 123.455C26.7859 124.244 25.0631 123.857 24.2625 122.003C23.462 120.149 24.367 118.642 26.1946 117.853C28.0354 117.058 29.7392 117.438 30.5398 119.292Z" fill="white"/>
<path d="M28.3706 107.93C27.7677 105.36 26.1816 104.473 23.3307 105.142L17.9379 106.407L18.3069 107.98L23.7137 106.711C25.5816 106.273 26.4816 106.699 26.8506 108.272C27.213 109.817 26.6029 110.627 24.7351 111.065L19.3283 112.333L19.6973 113.906L25.0901 112.641C27.9409 111.972 28.9604 110.444 28.3706 107.93Z" fill="white"/>
<path d="M26.6444 96.5867C26.5127 94.4558 25.3133 93.0558 23.3998 92.4948L22.4503 93.9699C23.9088 94.1832 25.0006 95.0118 25.1029 96.6675C25.2257 98.6544 23.8582 99.6783 21.8714 99.8011C19.8701 99.9248 18.4013 99.0762 18.2785 97.0893C18.1761 95.4336 19.1432 94.4778 20.5787 94.0855L19.4548 92.7387C17.6106 93.5319 16.6071 95.0681 16.7388 97.1989C16.9222 100.165 19.1994 101.701 21.9782 101.529C24.7569 101.357 26.8277 99.5526 26.6444 96.5867Z" fill="white"/>
<path d="M26.5324 87.5399L22.3485 87.0539L22.8843 82.44L27.0683 82.926L27.2564 81.3069L17.6562 80.1918L17.4681 81.811L21.4515 82.2736L20.9156 86.8875L16.9322 86.4248L16.7441 88.0439L26.3444 89.159L26.5324 87.5399Z" fill="white"/>
<path d="M27.7147 67.5264L26.5532 67.0906L25.2812 70.4805L26.4427 70.9163L27.7147 67.5264Z" fill="white"/>
<path d="M36.9019 57.098C38.0953 55.3105 37.4684 53.4177 35.6969 52.1483L38.9685 53.7947L39.5452 52.9309L35.3822 50.1517L32.9313 53.8228L34.071 54.5837L35.6168 52.2682C36.5403 53.301 36.8717 54.3895 35.9666 55.7451C34.9094 57.3288 33.237 57.3397 31.5335 56.2023C29.8659 55.089 29.2027 53.5363 30.3241 51.8567C31.1891 50.561 32.4935 50.3218 33.6854 50.7707L33.6306 49.0343C31.8105 48.617 30.1617 49.3201 29.0324 51.0117C27.3664 53.5071 28.2089 56.0641 30.5723 57.642C33.1277 59.348 35.5243 59.1615 36.9019 57.098Z" fill="white"/>
<path d="M46.4855 45.1881L45.4398 44.1944L41.8525 47.9691L39.8449 46.0611L42.8161 42.9347L41.7705 41.941L38.7993 45.0674L36.9381 43.2985L40.5255 39.5238L39.4798 38.5301L34.7695 43.4863L41.7751 50.1444L46.4855 45.1881Z" fill="white"/>
<path d="M52.2295 40.3503L47.2245 33.8268L49.5821 32.018L48.704 30.8735L42.707 35.4746L43.5851 36.6191L45.9313 34.819L50.9363 41.3425L52.2295 40.3503Z" fill="white"/>
<path d="M64.0236 33.1718L59.9297 24.417L58.4531 25.1074L62.5471 33.8623L64.0236 33.1718Z" fill="white"/>
<path d="M69.169 30.9391L67.545 25.87L66.8982 24.2293L68.1542 25.2659L73.716 29.4823L75.1447 29.0246L72.196 19.8206L70.6437 20.318L72.2633 25.3733L72.9184 27.0871L71.5496 25.9352L66.1104 21.7703L64.668 22.2324L67.6167 31.4364L69.169 30.9391Z" fill="white"/>
<path d="M88.4949 27.029L88.0509 18.8187L91.0182 18.6582L90.9403 17.2178L83.3926 17.626L83.4705 19.0664L86.4233 18.9067L86.8672 27.117L88.4949 27.029Z" fill="white"/>
<path d="M98.9851 27.4381C101.795 27.7535 103.959 25.8046 104.271 23.0236C104.581 20.2569 102.903 17.8767 100.094 17.5613C97.2698 17.2443 95.1203 19.1949 94.8097 21.9615C94.4976 24.7425 96.1611 27.1211 98.9851 27.4381ZM99.1732 25.8915C97.1663 25.6663 96.2919 24.1456 96.5156 22.153C96.7377 20.1748 97.9291 18.8715 99.936 19.0968C101.943 19.322 102.801 20.8554 102.579 22.8337C102.356 24.8262 101.18 26.1168 99.1732 25.8915Z" fill="white"/>
<path d="M109.939 29.5746C112.47 30.3228 114.026 29.3838 114.856 26.5756L116.426 21.2635L114.877 20.8056L113.303 26.1315C112.759 27.9714 111.943 28.5426 110.394 28.0846C108.872 27.6349 108.471 26.7039 109.014 24.8641L110.588 19.5382L109.039 19.0802L107.469 24.3923C106.639 27.2005 107.462 28.8427 109.939 29.5746Z" fill="white"/>
<path d="M120.703 33.6766C122.616 34.6238 124.428 34.2812 125.867 32.9014L125.061 31.3435C124.15 32.5018 122.887 33.0358 121.401 32.2998C119.617 31.4166 119.41 29.7208 120.293 27.9368C121.183 26.1398 122.65 25.2889 124.434 26.1721C125.921 26.9081 126.268 28.2228 125.893 29.6629L127.621 29.3593C127.852 27.365 127.019 25.7297 125.106 24.7825C122.443 23.4641 119.977 24.6737 118.742 27.1688C117.507 29.6638 118.04 32.3582 120.703 33.6766Z" fill="white"/>
<path d="M128.514 37.9778L131.017 34.5897L134.753 37.3494L132.25 40.7375L133.562 41.706L139.304 33.932L137.993 32.9635L135.61 36.1891L131.874 33.4294L134.256 30.2038L132.945 29.2354L127.203 37.0093L128.514 37.9778Z" fill="white"/>
<path d="M145.188 48.7125L146.138 47.9151L143.811 45.1415L142.86 45.9389L145.188 48.7125Z" fill="white"/>
<path d="M149.89 61.9602C150.858 63.8793 152.814 64.266 154.791 63.3496L151.747 65.3857L152.214 66.3131L156.684 64.0591L154.696 60.1179L153.472 60.735L154.726 63.2208C153.372 63.5158 152.262 63.268 151.528 61.8126C150.671 60.1125 151.485 58.6517 153.314 57.7293C155.104 56.8264 156.782 57.0141 157.691 58.8173C158.393 60.2083 157.959 61.4613 156.981 62.2776L158.519 63.0851C159.779 61.7066 159.979 59.9254 159.063 58.1094C157.712 55.4304 155.072 54.9041 152.534 56.1837C149.791 57.5673 148.773 59.7449 149.89 61.9602Z" fill="white"/>
<path d="M155.459 75.8477L156.839 75.4284L155.325 70.4458L157.975 69.6407L159.229 73.7676L160.609 73.3483L159.356 69.2214L161.812 68.475L163.326 73.4576L164.706 73.0383L162.719 66.4961L153.471 69.3054L155.459 75.8477Z" fill="white"/>
<path d="M156.89 83.2285L165.034 82.0919L165.444 85.035L166.873 84.8356L165.828 77.3494L164.399 77.5488L164.808 80.4775L156.665 81.6141L156.89 83.2285Z" fill="white"/>
<path d="M157.368 97.3369L167.001 98.1188L167.133 96.4941L157.5 95.7122L157.368 97.3369Z" fill="white"/>
<path d="M156.763 103.098L161.972 104.195L163.718 104.445L162.196 105.024L155.779 107.771L155.47 109.239L164.928 111.23L165.264 109.635L160.069 108.541L158.256 108.263L159.934 107.643L166.245 104.977L166.557 103.495L157.099 101.503L156.763 103.098Z" fill="white"/>
<path d="M150.524 122.053L157.865 125.756L156.527 128.409L157.815 129.059L161.219 122.31L159.931 121.66L158.599 124.3L151.258 120.598L150.524 122.053Z" fill="white"/>
<path d="M145.239 130.533C143.575 132.82 144.2 135.664 146.463 137.31C148.714 138.948 151.613 138.666 153.276 136.38C154.948 134.082 154.315 131.249 152.063 129.611C149.8 127.965 146.91 128.235 145.239 130.533ZM146.49 131.461C147.678 129.828 149.432 129.82 151.054 130.999C152.663 132.17 153.207 133.85 152.019 135.484C150.831 137.117 149.074 137.105 147.464 135.934C145.843 134.754 145.302 133.095 146.49 131.461Z" fill="white"/>
<path d="M137.921 139.086C136.021 140.918 136.07 142.735 138.102 144.843L141.947 148.83L143.11 147.709L139.255 143.711C137.924 142.33 137.829 141.339 138.992 140.217C140.134 139.116 141.142 139.226 142.474 140.607L146.329 144.605L147.492 143.483L143.647 139.496C141.615 137.388 139.78 137.294 137.921 139.086Z" fill="white"/>
<path d="M128.892 146.562C127.125 147.76 126.531 149.505 127.022 151.438L128.775 151.504C128.216 150.14 128.373 148.778 129.746 147.847C131.394 146.73 132.971 147.385 134.089 149.033C135.214 150.692 135.232 152.389 133.584 153.506C132.211 154.437 130.896 154.092 129.828 153.056L129.241 154.709C130.863 155.892 132.696 155.974 134.463 154.775C136.922 153.107 137.084 150.365 135.521 148.061C133.958 145.757 131.351 144.894 128.892 146.562Z" fill="white"/>
<path d="M121.585 151.105L123.313 154.947L119.076 156.852L117.349 153.01L115.862 153.679L119.825 162.493L121.312 161.825L119.668 158.167L123.904 156.263L125.548 159.92L127.035 159.252L123.072 150.437L121.585 151.105Z" fill="white"/>
<path d="M103.739 160.427L103.962 161.647L107.523 160.996L107.3 159.776L103.739 160.427Z" fill="white"/>
<g clip-path="url(#clip0_271_2066)">
<path fill-rule="evenodd" clip-rule="evenodd" d="M77.2826 75.7711C79.2638 77.7523 81.5792 79.3605 84.0966 80.5039C86.614 81.6472 89.2842 82.3033 91.9546 82.4347C94.625 82.5662 97.2434 82.1703 99.6602 81.2698C102.077 80.3693 104.245 78.9818 106.04 77.1865L106.104 77.2504L106.104 77.2504L108.273 79.4189L108.273 79.4189L108.337 79.4828C106.541 81.2782 105.154 83.4461 104.253 85.863C103.353 88.2798 102.957 90.8982 103.088 93.5686C103.22 96.239 103.876 98.9092 105.019 101.427C106.163 103.944 107.771 106.259 109.752 108.241L107.535 110.458C99.3514 102.274 98.9562 91.8076 104.201 83.4904L79.36 108.332L77.1915 106.163L102.033 81.3218C93.7157 86.567 83.2494 86.1719 75.0656 77.9881L77.2826 75.7711Z" fill="white"/>
</g>
<defs>
<clipPath id="clip0_271_2066">
<rect width="40.8889" height="40.8889" fill="white" transform="translate(63.8184 92.791) rotate(-45)"/>
</clipPath>
</defs>
</svg>
